{
	"asset":{
		"generator":"Khronos glTF Blender I/O v4.1.62",
		"version":"2.0"
	},
	"scene":0,
	"scenes":[
		{
			"name":"Scene",
			"nodes":[
				0
			]
		}
	],
	"nodes":[
		{
			"mesh":0,
			"name":"\u5186\u67f1"
		}
	],
	"materials":[
		{
			"doubleSided":true,
			"name":"MT_Hammer",
			"pbrMetallicRoughness":{
				"baseColorTexture":{
					"index":0
				},
				"metallicFactor":0,
				"roughnessFactor":0.5
			}
		}
	],
	"meshes":[
		{
			"name":"\u5186\u67f1",
			"primitives":[
				{
					"attributes":{
						"POSITION":0,
						"NORMAL":1,
						"TEXCOORD_0":2
					},
					"indices":3,
					"material":0
				}
			]
		}
	],
	"textures":[
		{
			"sampler":0,
			"source":0
		}
	],
	"images":[
		{
			"mimeType":"image/png",
			"name":"Hammer",
			"uri":"Hammer.png"
		}
	],
	"accessors":[
		{
			"bufferView":0,
			"componentType":5126,
			"count":3017,
			"max":[
				1.2000000476837158,
				13.300000190734863,
				3.6855862140655518
			],
			"min":[
				-1.2000000476837158,
				3.919013023376465,
				-3.6855859756469727
			],
			"type":"VEC3"
		},
		{
			"bufferView":1,
			"componentType":5126,
			"count":3017,
			"type":"VEC3"
		},
		{
			"bufferView":2,
			"componentType":5126,
			"count":3017,
			"type":"VEC2"
		},
		{
			"bufferView":3,
			"componentType":5123,
			"count":14616,
			"type":"SCALAR"
		}
	],
	"bufferViews":[
		{
			"buffer":0,
			"byteLength":36204,
			"byteOffset":0,
			"target":34962
		},
		{
			"buffer":0,
			"byteLength":36204,
			"byteOffset":36204,
			"target":34962
		},
		{
			"buffer":0,
			"byteLength":24136,
			"byteOffset":72408,
			"target":34962
		},
		{
			"buffer":0,
			"byteLength":29232,
			"byteOffset":96544,
			"target":34963
		}
	],
	"samplers":[
		{
			"magFilter":9729,
			"minFilter":9987
		}
	],
	"buffers":[
		{
			"byteLength":125776,
			"uri":"Hammer.bin"
		}
	]
}
