{
	"asset":{
		"generator":"Khronos glTF Blender I/O v4.5.47",
		"version":"2.0"
	},
	"scene":0,
	"scenes":[
		{
			"name":"Scene",
			"nodes":[
				0,
				1,
				2,
				3,
				4
			]
		}
	],
	"nodes":[
		{
			"mesh":0,
			"name":"\u7acb\u65b9\u4f53"
		},
		{
			"mesh":1,
			"name":"\u7acb\u65b9\u4f53.001"
		},
		{
			"mesh":2,
			"name":"\u7acb\u65b9\u4f53.002"
		},
		{
			"mesh":3,
			"name":"\u7acb\u65b9\u4f53.003"
		},
		{
			"mesh":4,
			"name":"\u7acb\u65b9\u4f53.004"
		}
	],
	"materials":[
		{
			"doubleSided":true,
			"name":"\u30de\u30c6\u30ea\u30a2\u30eb",
			"pbrMetallicRoughness":{
				"baseColorTexture":{
					"index":0
				},
				"metallicFactor":0,
				"roughnessFactor":0.5
			}
		},
		{
			"doubleSided":true,
			"name":"\u30de\u30c6\u30ea\u30a2\u30eb.003",
			"pbrMetallicRoughness":{
				"metallicFactor":0,
				"roughnessFactor":0.5
			}
		}
	],
	"meshes":[
		{
			"name":"\u7acb\u65b9\u4f53",
			"primitives":[
				{
					"attributes":{
						"POSITION":0,
						"NORMAL":1,
						"TEXCOORD_0":2
					},
					"indices":3,
					"material":0
				}
			]
		},
		{
			"name":"\u7acb\u65b9\u4f53.004",
			"primitives":[
				{
					"attributes":{
						"POSITION":4,
						"NORMAL":5,
						"TEXCOORD_0":6
					},
					"indices":7,
					"material":1
				}
			]
		},
		{
			"name":"\u7acb\u65b9\u4f53.005",
			"primitives":[
				{
					"attributes":{
						"POSITION":8,
						"NORMAL":9,
						"TEXCOORD_0":10
					},
					"indices":3,
					"material":1
				}
			]
		},
		{
			"name":"\u7acb\u65b9\u4f53.006",
			"primitives":[
				{
					"attributes":{
						"POSITION":11,
						"NORMAL":12,
						"TEXCOORD_0":13
					},
					"indices":7,
					"material":1
				}
			]
		},
		{
			"name":"\u7acb\u65b9\u4f53.007",
			"primitives":[
				{
					"attributes":{
						"POSITION":14,
						"NORMAL":15,
						"TEXCOORD_0":16
					},
					"indices":3,
					"material":1
				}
			]
		}
	],
	"textures":[
		{
			"sampler":0,
			"source":0
		}
	],
	"images":[
		{
			"mimeType":"image/png",
			"name":"stone",
			"uri":"stone.png"
		}
	],
	"accessors":[
		{
			"bufferView":0,
			"componentType":5126,
			"count":24,
			"max":[
				100,
				0.10000026226043701,
				100
			],
			"min":[
				-100,
				-0.10000026226043701,
				-100
			],
			"type":"VEC3"
		},
		{
			"bufferView":1,
			"componentType":5126,
			"count":24,
			"type":"VEC3"
		},
		{
			"bufferView":2,
			"componentType":5126,
			"count":24,
			"type":"VEC2"
		},
		{
			"bufferView":3,
			"componentType":5123,
			"count":36,
			"type":"SCALAR"
		},
		{
			"bufferView":4,
			"componentType":5126,
			"count":24,
			"max":[
				-48.999996185302734,
				20,
				50
			],
			"min":[
				-51.000003814697266,
				0,
				-50
			],
			"type":"VEC3"
		},
		{
			"bufferView":5,
			"componentType":5126,
			"count":24,
			"type":"VEC3"
		},
		{
			"bufferView":6,
			"componentType":5126,
			"count":24,
			"type":"VEC2"
		},
		{
			"bufferView":7,
			"componentType":5123,
			"count":36,
			"type":"SCALAR"
		},
		{
			"bufferView":8,
			"componentType":5126,
			"count":24,
			"max":[
				50,
				20,
				51
			],
			"min":[
				-50,
				0,
				49
			],
			"type":"VEC3"
		},
		{
			"bufferView":9,
			"componentType":5126,
			"count":24,
			"type":"VEC3"
		},
		{
			"bufferView":10,
			"componentType":5126,
			"count":24,
			"type":"VEC2"
		},
		{
			"bufferView":11,
			"componentType":5126,
			"count":24,
			"max":[
				51.000003814697266,
				20,
				50
			],
			"min":[
				48.999996185302734,
				0,
				-50
			],
			"type":"VEC3"
		},
		{
			"bufferView":12,
			"componentType":5126,
			"count":24,
			"type":"VEC3"
		},
		{
			"bufferView":13,
			"componentType":5126,
			"count":24,
			"type":"VEC2"
		},
		{
			"bufferView":14,
			"componentType":5126,
			"count":24,
			"max":[
				50,
				20,
				-49
			],
			"min":[
				-50,
				0,
				-51
			],
			"type":"VEC3"
		},
		{
			"bufferView":15,
			"componentType":5126,
			"count":24,
			"type":"VEC3"
		},
		{
			"bufferView":16,
			"componentType":5126,
			"count":24,
			"type":"VEC2"
		}
	],
	"bufferViews":[
		{
			"buffer":0,
			"byteLength":288,
			"byteOffset":0,
			"target":34962
		},
		{
			"buffer":0,
			"byteLength":288,
			"byteOffset":288,
			"target":34962
		},
		{
			"buffer":0,
			"byteLength":192,
			"byteOffset":576,
			"target":34962
		},
		{
			"buffer":0,
			"byteLength":72,
			"byteOffset":768,
			"target":34963
		},
		{
			"buffer":0,
			"byteLength":288,
			"byteOffset":840,
			"target":34962
		},
		{
			"buffer":0,
			"byteLength":288,
			"byteOffset":1128,
			"target":34962
		},
		{
			"buffer":0,
			"byteLength":192,
			"byteOffset":1416,
			"target":34962
		},
		{
			"buffer":0,
			"byteLength":72,
			"byteOffset":1608,
			"target":34963
		},
		{
			"buffer":0,
			"byteLength":288,
			"byteOffset":1680,
			"target":34962
		},
		{
			"buffer":0,
			"byteLength":288,
			"byteOffset":1968,
			"target":34962
		},
		{
			"buffer":0,
			"byteLength":192,
			"byteOffset":2256,
			"target":34962
		},
		{
			"buffer":0,
			"byteLength":288,
			"byteOffset":2448,
			"target":34962
		},
		{
			"buffer":0,
			"byteLength":288,
			"byteOffset":2736,
			"target":34962
		},
		{
			"buffer":0,
			"byteLength":192,
			"byteOffset":3024,
			"target":34962
		},
		{
			"buffer":0,
			"byteLength":288,
			"byteOffset":3216,
			"target":34962
		},
		{
			"buffer":0,
			"byteLength":288,
			"byteOffset":3504,
			"target":34962
		},
		{
			"buffer":0,
			"byteLength":192,
			"byteOffset":3792,
			"target":34962
		}
	],
	"samplers":[
		{
			"magFilter":9729,
			"minFilter":9987
		}
	],
	"buffers":[
		{
			"byteLength":3984,
			"uri":"lobby03.bin"
		}
	]
}
