{
	"asset":{
		"generator":"Khronos glTF Blender I/O v4.5.47",
		"version":"2.0"
	},
	"scene":0,
	"scenes":[
		{
			"name":"Scene",
			"nodes":[
				0
			]
		}
	],
	"nodes":[
		{
			"mesh":0,
			"name":"stanford-bunny",
			"rotation":[
				0.7071068286895752,
				0,
				0,
				0.7071068286895752
			]
		}
	],
	"materials":[
		{
			"doubleSided":true,
			"name":"\u30de\u30c6\u30ea\u30a2\u30eb",
			"pbrMetallicRoughness":{
				"baseColorTexture":{
					"index":0
				},
				"metallicFactor":0,
				"roughnessFactor":0.5
			}
		}
	],
	"meshes":[
		{
			"name":"stanford-bunny",
			"primitives":[
				{
					"attributes":{
						"POSITION":0,
						"NORMAL":1
					},
					"indices":2,
					"material":0
				}
			]
		}
	],
	"textures":[
		{
			"sampler":0,
			"source":0
		}
	],
	"images":[
		{
			"mimeType":"image/png",
			"name":"uvChecker",
			"uri":"uvChecker.png"
		}
	],
	"accessors":[
		{
			"bufferView":0,
			"componentType":5126,
			"count":207619,
			"max":[
				0.0610090009868145,
				0.058800000697374344,
				-0.032986998558044434
			],
			"min":[
				-0.0946900025010109,
				-0.06187399849295616,
				-0.1873210072517395
			],
			"type":"VEC3"
		},
		{
			"bufferView":1,
			"componentType":5126,
			"count":207619,
			"type":"VEC3"
		},
		{
			"bufferView":2,
			"componentType":5125,
			"count":208353,
			"type":"SCALAR"
		}
	],
	"bufferViews":[
		{
			"buffer":0,
			"byteLength":2491428,
			"byteOffset":0,
			"target":34962
		},
		{
			"buffer":0,
			"byteLength":2491428,
			"byteOffset":2491428,
			"target":34962
		},
		{
			"buffer":0,
			"byteLength":833412,
			"byteOffset":4982856,
			"target":34963
		}
	],
	"samplers":[
		{
			"magFilter":9729,
			"minFilter":9987
		}
	],
	"buffers":[
		{
			"byteLength":5816268,
			"uri":"stanford-bunny.bin"
		}
	]
}
