{
	"asset":{
		"generator":"Khronos glTF Blender I/O v4.5.47",
		"version":"2.0"
	},
	"scene":0,
	"scenes":[
		{
			"name":"Scene",
			"nodes":[
				1,
				3,
				5,
				7,
				32
			]
		}
	],
	"nodes":[
		{
			"mesh":0,
			"name":"Stair_Right_01.001"
		},
		{
			"children":[
				0
			],
			"name":"Stair_Fwd_01"
		},
		{
			"mesh":1,
			"name":"Stair_Right_01.002"
		},
		{
			"children":[
				2
			],
			"name":"Stair_Back_01"
		},
		{
			"mesh":2,
			"name":"Stair_RightSide_01"
		},
		{
			"children":[
				4
			],
			"name":"Stair_Fwd_01.001"
		},
		{
			"mesh":3,
			"name":"Stair_LeftSide_01"
		},
		{
			"children":[
				6
			],
			"name":"Stair_Fwd_01.002"
		},
		{
			"mesh":4,
			"name":"Barrier_Left"
		},
		{
			"mesh":5,
			"name":"Barrier_Right"
		},
		{
			"mesh":6,
			"name":"Barrier_SouthLeft"
		},
		{
			"mesh":7,
			"name":"Barrier_SouthRight"
		},
		{
			"mesh":8,
			"name":"Cover_Crate_01"
		},
		{
			"mesh":9,
			"name":"Cover_Crate_02"
		},
		{
			"mesh":10,
			"name":"Cover_Crate_03"
		},
		{
			"mesh":11,
			"name":"Cover_Crate_04"
		},
		{
			"mesh":12,
			"name":"Ground_Main"
		},
		{
			"mesh":13,
			"name":"Pillar_Center_01"
		},
		{
			"mesh":14,
			"name":"Pillar_Center_02"
		},
		{
			"mesh":15,
			"name":"Pillar_Center_03"
		},
		{
			"mesh":16,
			"name":"Pillar_Center_04"
		},
		{
			"mesh":17,
			"name":"Platform_Center"
		},
		{
			"mesh":18,
			"name":"SideDeck_Left"
		},
		{
			"mesh":19,
			"name":"SideDeck_Right"
		},
		{
			"mesh":20,
			"name":"Stair_Left_01"
		},
		{
			"mesh":21,
			"name":"Stair_Left_02"
		},
		{
			"mesh":22,
			"name":"Stair_Right_01"
		},
		{
			"mesh":23,
			"name":"Stair_Right_02"
		},
		{
			"mesh":24,
			"name":"Wall_East"
		},
		{
			"mesh":25,
			"name":"Wall_North"
		},
		{
			"mesh":26,
			"name":"Wall_South"
		},
		{
			"mesh":27,
			"name":"Wall_West"
		},
		{
			"children":[
				8,
				9,
				10,
				11,
				12,
				13,
				14,
				15,
				16,
				17,
				18,
				19,
				20,
				21,
				22,
				23,
				24,
				25,
				26,
				27,
				28,
				29,
				30,
				31
			],
			"name":"Stage01_Root_100x100"
		}
	],
	"materials":[
		{
			"name":"M_Stage01_Stone.002",
			"pbrMetallicRoughness":{
				"baseColorTexture":{
					"index":0
				},
				"metallicFactor":0.05000000074505806,
				"roughnessFactor":0.949999988079071
			}
		},
		{
			"name":"M_Stage01_Stone.003",
			"pbrMetallicRoughness":{
				"baseColorTexture":{
					"index":1
				},
				"metallicFactor":0.05000000074505806,
				"roughnessFactor":0.949999988079071
			}
		},
		{
			"name":"M_Stage01_Stone.004",
			"pbrMetallicRoughness":{
				"baseColorTexture":{
					"index":2
				},
				"metallicFactor":0.05000000074505806,
				"roughnessFactor":0.949999988079071
			}
		},
		{
			"name":"M_Stage01_Stone.005",
			"pbrMetallicRoughness":{
				"baseColorTexture":{
					"index":3
				},
				"metallicFactor":0.05000000074505806,
				"roughnessFactor":0.949999988079071
			}
		},
		{
			"name":"M_Stage01_Stone.001",
			"pbrMetallicRoughness":{
				"baseColorTexture":{
					"index":4
				},
				"metallicFactor":0.05000000074505806,
				"roughnessFactor":0.949999988079071
			}
		},
		{
			"name":"M_Stage01_Wood.001",
			"pbrMetallicRoughness":{
				"baseColorTexture":{
					"index":5
				},
				"metallicFactor":0.05000000074505806,
				"roughnessFactor":0.949999988079071
			}
		},
		{
			"name":"M_Stage01_Ground.001",
			"pbrMetallicRoughness":{
				"baseColorTexture":{
					"index":6
				},
				"metallicFactor":0.05000000074505806,
				"roughnessFactor":0.949999988079071
			}
		},
		{
			"name":"M_Stage01_Metal.001",
			"pbrMetallicRoughness":{
				"baseColorTexture":{
					"index":7
				},
				"metallicFactor":0.5,
				"roughnessFactor":0.6499999761581421
			}
		}
	],
	"meshes":[
		{
			"name":"Stair_Right_01.002",
			"primitives":[
				{
					"attributes":{
						"POSITION":0,
						"NORMAL":1,
						"TEXCOORD_0":2
					},
					"indices":3,
					"material":0
				}
			]
		},
		{
			"name":"Stair_Right_01.003",
			"primitives":[
				{
					"attributes":{
						"POSITION":4,
						"NORMAL":5,
						"TEXCOORD_0":6
					},
					"indices":3,
					"material":1
				}
			]
		},
		{
			"name":"Stair_Right_01.004",
			"primitives":[
				{
					"attributes":{
						"POSITION":7,
						"NORMAL":8,
						"TEXCOORD_0":9
					},
					"indices":3,
					"material":2
				}
			]
		},
		{
			"name":"Stair_Right_01.005",
			"primitives":[
				{
					"attributes":{
						"POSITION":10,
						"NORMAL":11,
						"TEXCOORD_0":12
					},
					"indices":3,
					"material":3
				}
			]
		},
		{
			"name":"Barrier_Left.001",
			"primitives":[
				{
					"attributes":{
						"POSITION":13,
						"NORMAL":14,
						"TEXCOORD_0":15
					},
					"indices":3,
					"material":4
				}
			]
		},
		{
			"name":"Barrier_Right.001",
			"primitives":[
				{
					"attributes":{
						"POSITION":16,
						"NORMAL":17,
						"TEXCOORD_0":18
					},
					"indices":3,
					"material":4
				}
			]
		},
		{
			"name":"Barrier_SouthLeft.001",
			"primitives":[
				{
					"attributes":{
						"POSITION":19,
						"NORMAL":20,
						"TEXCOORD_0":21
					},
					"indices":3,
					"material":4
				}
			]
		},
		{
			"name":"Barrier_SouthRight.001",
			"primitives":[
				{
					"attributes":{
						"POSITION":22,
						"NORMAL":23,
						"TEXCOORD_0":24
					},
					"indices":3,
					"material":4
				}
			]
		},
		{
			"name":"Cover_Crate_01.001",
			"primitives":[
				{
					"attributes":{
						"POSITION":25,
						"NORMAL":26,
						"TEXCOORD_0":27
					},
					"indices":3,
					"material":5
				}
			]
		},
		{
			"name":"Cover_Crate_02.001",
			"primitives":[
				{
					"attributes":{
						"POSITION":28,
						"NORMAL":29,
						"TEXCOORD_0":30
					},
					"indices":3,
					"material":5
				}
			]
		},
		{
			"name":"Cover_Crate_03.001",
			"primitives":[
				{
					"attributes":{
						"POSITION":31,
						"NORMAL":32,
						"TEXCOORD_0":33
					},
					"indices":3,
					"material":5
				}
			]
		},
		{
			"name":"Cover_Crate_04.001",
			"primitives":[
				{
					"attributes":{
						"POSITION":34,
						"NORMAL":35,
						"TEXCOORD_0":36
					},
					"indices":3,
					"material":5
				}
			]
		},
		{
			"name":"Ground_Main.001",
			"primitives":[
				{
					"attributes":{
						"POSITION":37,
						"NORMAL":38,
						"TEXCOORD_0":39
					},
					"indices":3,
					"material":6
				}
			]
		},
		{
			"name":"Pillar_Center_01.001",
			"primitives":[
				{
					"attributes":{
						"POSITION":40,
						"NORMAL":41,
						"TEXCOORD_0":42
					},
					"indices":3,
					"material":4
				}
			]
		},
		{
			"name":"Pillar_Center_02.001",
			"primitives":[
				{
					"attributes":{
						"POSITION":43,
						"NORMAL":44,
						"TEXCOORD_0":45
					},
					"indices":3,
					"material":4
				}
			]
		},
		{
			"name":"Pillar_Center_03.001",
			"primitives":[
				{
					"attributes":{
						"POSITION":46,
						"NORMAL":47,
						"TEXCOORD_0":48
					},
					"indices":3,
					"material":4
				}
			]
		},
		{
			"name":"Pillar_Center_04.001",
			"primitives":[
				{
					"attributes":{
						"POSITION":49,
						"NORMAL":50,
						"TEXCOORD_0":51
					},
					"indices":3,
					"material":4
				}
			]
		},
		{
			"name":"Platform_Center.001",
			"primitives":[
				{
					"attributes":{
						"POSITION":52,
						"NORMAL":53,
						"TEXCOORD_0":54
					},
					"indices":3,
					"material":4
				}
			]
		},
		{
			"name":"SideDeck_Left.001",
			"primitives":[
				{
					"attributes":{
						"POSITION":55,
						"NORMAL":56,
						"TEXCOORD_0":57
					},
					"indices":3,
					"material":7
				}
			]
		},
		{
			"name":"SideDeck_Right.001",
			"primitives":[
				{
					"attributes":{
						"POSITION":58,
						"NORMAL":59,
						"TEXCOORD_0":60
					},
					"indices":3,
					"material":7
				}
			]
		},
		{
			"name":"Stair_Left_01.001",
			"primitives":[
				{
					"attributes":{
						"POSITION":61,
						"NORMAL":62,
						"TEXCOORD_0":63
					},
					"indices":3,
					"material":4
				}
			]
		},
		{
			"name":"Stair_Left_02.001",
			"primitives":[
				{
					"attributes":{
						"POSITION":64,
						"NORMAL":65,
						"TEXCOORD_0":66
					},
					"indices":3,
					"material":4
				}
			]
		},
		{
			"name":"Stair_Right_01.001",
			"primitives":[
				{
					"attributes":{
						"POSITION":67,
						"NORMAL":68,
						"TEXCOORD_0":69
					},
					"indices":3,
					"material":4
				}
			]
		},
		{
			"name":"Stair_Right_02.001",
			"primitives":[
				{
					"attributes":{
						"POSITION":70,
						"NORMAL":71,
						"TEXCOORD_0":72
					},
					"indices":3,
					"material":4
				}
			]
		},
		{
			"name":"Wall_East.001",
			"primitives":[
				{
					"attributes":{
						"POSITION":73,
						"NORMAL":74,
						"TEXCOORD_0":75
					},
					"indices":3,
					"material":4
				}
			]
		},
		{
			"name":"Wall_North.001",
			"primitives":[
				{
					"attributes":{
						"POSITION":76,
						"NORMAL":77,
						"TEXCOORD_0":78
					},
					"indices":3,
					"material":4
				}
			]
		},
		{
			"name":"Wall_South.001",
			"primitives":[
				{
					"attributes":{
						"POSITION":79,
						"NORMAL":80,
						"TEXCOORD_0":81
					},
					"indices":3,
					"material":4
				}
			]
		},
		{
			"name":"Wall_West.001",
			"primitives":[
				{
					"attributes":{
						"POSITION":82,
						"NORMAL":83,
						"TEXCOORD_0":84
					},
					"indices":3,
					"material":4
				}
			]
		}
	],
	"textures":[
		{
			"sampler":0,
			"source":0
		},
		{
			"sampler":0,
			"source":0
		},
		{
			"sampler":0,
			"source":0
		},
		{
			"sampler":0,
			"source":0
		},
		{
			"sampler":0,
			"source":0
		},
		{
			"sampler":0,
			"source":1
		},
		{
			"sampler":0,
			"source":2
		},
		{
			"sampler":0,
			"source":3
		}
	],
	"images":[
		{
			"mimeType":"image/png",
			"name":"T_Stage01_Wall_StoneBlock",
			"uri":"T_Stage01_Wall_StoneBlock.png"
		},
		{
			"mimeType":"image/png",
			"name":"T_Stage01_Cover_WoodCrate",
			"uri":"T_Stage01_Cover_WoodCrate.png"
		},
		{
			"mimeType":"image/png",
			"name":"T_Stage01_Ground_GrassDirt",
			"uri":"T_Stage01_Ground_GrassDirt.png"
		},
		{
			"mimeType":"image/png",
			"name":"T_Stage01_Prop_MetalTrim",
			"uri":"T_Stage01_Prop_MetalTrim.png"
		}
	],
	"accessors":[
		{
			"bufferView":0,
			"componentType":5126,
			"count":24,
			"max":[
				6.4516143798828125,
				1.6129032373428345,
				-9.887096405029297
			],
			"min":[
				-6.45161247253418,
				0,
				-13.112903594970703
			],
			"type":"VEC3"
		},
		{
			"bufferView":1,
			"componentType":5126,
			"count":24,
			"type":"VEC3"
		},
		{
			"bufferView":2,
			"componentType":5126,
			"count":24,
			"type":"VEC2"
		},
		{
			"bufferView":3,
			"componentType":5123,
			"count":36,
			"type":"SCALAR"
		},
		{
			"bufferView":4,
			"componentType":5126,
			"count":24,
			"max":[
				6.4516143798828125,
				1.6129032373428345,
				13.112903594970703
			],
			"min":[
				-6.45161247253418,
				0,
				9.887096405029297
			],
			"type":"VEC3"
		},
		{
			"bufferView":5,
			"componentType":5126,
			"count":24,
			"type":"VEC3"
		},
		{
			"bufferView":6,
			"componentType":5126,
			"count":24,
			"type":"VEC2"
		},
		{
			"bufferView":7,
			"componentType":5126,
			"count":24,
			"max":[
				13.112902641296387,
				1.6129032373428345,
				6.451611518859863
			],
			"min":[
				9.887094497680664,
				0,
				-6.4516143798828125
			],
			"type":"VEC3"
		},
		{
			"bufferView":8,
			"componentType":5126,
			"count":24,
			"type":"VEC3"
		},
		{
			"bufferView":9,
			"componentType":5126,
			"count":24,
			"type":"VEC2"
		},
		{
			"bufferView":10,
			"componentType":5126,
			"count":24,
			"max":[
				-9.887094497680664,
				1.6129032373428345,
				6.4516096115112305
			],
			"min":[
				-13.112902641296387,
				0,
				-6.451616287231445
			],
			"type":"VEC3"
		},
		{
			"bufferView":11,
			"componentType":5126,
			"count":24,
			"type":"VEC3"
		},
		{
			"bufferView":12,
			"componentType":5126,
			"count":24,
			"type":"VEC2"
		},
		{
			"bufferView":13,
			"componentType":5126,
			"count":24,
			"max":[
				-9.677419662475586,
				6.451612949371338,
				30.967742919921875
			],
			"min":[
				-22.580644607543945,
				0,
				27.09677505493164
			],
			"type":"VEC3"
		},
		{
			"bufferView":14,
			"componentType":5126,
			"count":24,
			"type":"VEC3"
		},
		{
			"bufferView":15,
			"componentType":5126,
			"count":24,
			"type":"VEC2"
		},
		{
			"bufferView":16,
			"componentType":5126,
			"count":24,
			"max":[
				22.580644607543945,
				6.451612949371338,
				30.967742919921875
			],
			"min":[
				9.677419662475586,
				0,
				27.09677505493164
			],
			"type":"VEC3"
		},
		{
			"bufferView":17,
			"componentType":5126,
			"count":24,
			"type":"VEC3"
		},
		{
			"bufferView":18,
			"componentType":5126,
			"count":24,
			"type":"VEC2"
		},
		{
			"bufferView":19,
			"componentType":5126,
			"count":24,
			"max":[
				-9.677419662475586,
				6.451612949371338,
				-27.09677505493164
			],
			"min":[
				-22.580644607543945,
				0,
				-30.967742919921875
			],
			"type":"VEC3"
		},
		{
			"bufferView":20,
			"componentType":5126,
			"count":24,
			"type":"VEC3"
		},
		{
			"bufferView":21,
			"componentType":5126,
			"count":24,
			"type":"VEC2"
		},
		{
			"bufferView":22,
			"componentType":5126,
			"count":24,
			"max":[
				22.580644607543945,
				6.451612949371338,
				-27.09677505493164
			],
			"min":[
				9.677419662475586,
				0,
				-30.967742919921875
			],
			"type":"VEC3"
		},
		{
			"bufferView":23,
			"componentType":5126,
			"count":24,
			"type":"VEC3"
		},
		{
			"bufferView":24,
			"componentType":5126,
			"count":24,
			"type":"VEC2"
		},
		{
			"bufferView":25,
			"componentType":5126,
			"count":24,
			"max":[
				-22.580644607543945,
				6.451612949371338,
				-12.903225898742676
			],
			"min":[
				-29.032258987426758,
				0,
				-19.354839324951172
			],
			"type":"VEC3"
		},
		{
			"bufferView":26,
			"componentType":5126,
			"count":24,
			"type":"VEC3"
		},
		{
			"bufferView":27,
			"componentType":5126,
			"count":24,
			"type":"VEC2"
		},
		{
			"bufferView":28,
			"componentType":5126,
			"count":24,
			"max":[
				29.032258987426758,
				6.451612949371338,
				-12.903225898742676
			],
			"min":[
				22.580644607543945,
				0,
				-19.354839324951172
			],
			"type":"VEC3"
		},
		{
			"bufferView":29,
			"componentType":5126,
			"count":24,
			"type":"VEC3"
		},
		{
			"bufferView":30,
			"componentType":5126,
			"count":24,
			"type":"VEC2"
		},
		{
			"bufferView":31,
			"componentType":5126,
			"count":24,
			"max":[
				-22.580644607543945,
				6.451612949371338,
				19.354839324951172
			],
			"min":[
				-29.032258987426758,
				0,
				12.903225898742676
			],
			"type":"VEC3"
		},
		{
			"bufferView":32,
			"componentType":5126,
			"count":24,
			"type":"VEC3"
		},
		{
			"bufferView":33,
			"componentType":5126,
			"count":24,
			"type":"VEC2"
		},
		{
			"bufferView":34,
			"componentType":5126,
			"count":24,
			"max":[
				29.032258987426758,
				6.451612949371338,
				19.354839324951172
			],
			"min":[
				22.580644607543945,
				0,
				12.903225898742676
			],
			"type":"VEC3"
		},
		{
			"bufferView":35,
			"componentType":5126,
			"count":24,
			"type":"VEC3"
		},
		{
			"bufferView":36,
			"componentType":5126,
			"count":24,
			"type":"VEC2"
		},
		{
			"bufferView":37,
			"componentType":5126,
			"count":24,
			"max":[
				48.3870964050293,
				0,
				48.3870964050293
			],
			"min":[
				-48.3870964050293,
				-3.225806474685669,
				-48.3870964050293
			],
			"type":"VEC3"
		},
		{
			"bufferView":38,
			"componentType":5126,
			"count":24,
			"type":"VEC3"
		},
		{
			"bufferView":39,
			"componentType":5126,
			"count":24,
			"type":"VEC2"
		},
		{
			"bufferView":40,
			"componentType":5126,
			"count":24,
			"max":[
				-4.838709831237793,
				12.903225898742676,
				-4.838709831237793
			],
			"min":[
				-8.064516067504883,
				3.22580623626709,
				-8.064516067504883
			],
			"type":"VEC3"
		},
		{
			"bufferView":41,
			"componentType":5126,
			"count":24,
			"type":"VEC3"
		},
		{
			"bufferView":42,
			"componentType":5126,
			"count":24,
			"type":"VEC2"
		},
		{
			"bufferView":43,
			"componentType":5126,
			"count":24,
			"max":[
				8.064516067504883,
				12.903225898742676,
				-4.838709831237793
			],
			"min":[
				4.838709831237793,
				3.22580623626709,
				-8.064516067504883
			],
			"type":"VEC3"
		},
		{
			"bufferView":44,
			"componentType":5126,
			"count":24,
			"type":"VEC3"
		},
		{
			"bufferView":45,
			"componentType":5126,
			"count":24,
			"type":"VEC2"
		},
		{
			"bufferView":46,
			"componentType":5126,
			"count":24,
			"max":[
				-4.838709831237793,
				12.903225898742676,
				8.064516067504883
			],
			"min":[
				-8.064516067504883,
				3.22580623626709,
				4.838709831237793
			],
			"type":"VEC3"
		},
		{
			"bufferView":47,
			"componentType":5126,
			"count":24,
			"type":"VEC3"
		},
		{
			"bufferView":48,
			"componentType":5126,
			"count":24,
			"type":"VEC2"
		},
		{
			"bufferView":49,
			"componentType":5126,
			"count":24,
			"max":[
				8.064516067504883,
				12.903225898742676,
				8.064516067504883
			],
			"min":[
				4.838709831237793,
				3.22580623626709,
				4.838709831237793
			],
			"type":"VEC3"
		},
		{
			"bufferView":50,
			"componentType":5126,
			"count":24,
			"type":"VEC3"
		},
		{
			"bufferView":51,
			"componentType":5126,
			"count":24,
			"type":"VEC2"
		},
		{
			"bufferView":52,
			"componentType":5126,
			"count":24,
			"max":[
				9.677419662475586,
				3.225806474685669,
				9.677419662475586
			],
			"min":[
				-9.677419662475586,
				0,
				-9.677419662475586
			],
			"type":"VEC3"
		},
		{
			"bufferView":53,
			"componentType":5126,
			"count":24,
			"type":"VEC3"
		},
		{
			"bufferView":54,
			"componentType":5126,
			"count":24,
			"type":"VEC2"
		},
		{
			"bufferView":55,
			"componentType":5126,
			"count":24,
			"max":[
				-29.032258987426758,
				3.225806474685669,
				9.677419662475586
			],
			"min":[
				-41.93548583984375,
				0,
				-9.677419662475586
			],
			"type":"VEC3"
		},
		{
			"bufferView":56,
			"componentType":5126,
			"count":24,
			"type":"VEC3"
		},
		{
			"bufferView":57,
			"componentType":5126,
			"count":24,
			"type":"VEC2"
		},
		{
			"bufferView":58,
			"componentType":5126,
			"count":24,
			"max":[
				41.93548583984375,
				3.225806474685669,
				9.677419662475586
			],
			"min":[
				29.032258987426758,
				0,
				-9.677419662475586
			],
			"type":"VEC3"
		},
		{
			"bufferView":59,
			"componentType":5126,
			"count":24,
			"type":"VEC3"
		},
		{
			"bufferView":60,
			"componentType":5126,
			"count":24,
			"type":"VEC2"
		},
		{
			"bufferView":61,
			"componentType":5126,
			"count":24,
			"max":[
				-19.387096405029297,
				1.6129032373428345,
				3.225806474685669
			],
			"min":[
				-22.612903594970703,
				0,
				-3.225806474685669
			],
			"type":"VEC3"
		},
		{
			"bufferView":62,
			"componentType":5126,
			"count":24,
			"type":"VEC3"
		},
		{
			"bufferView":63,
			"componentType":5126,
			"count":24,
			"type":"VEC2"
		},
		{
			"bufferView":64,
			"componentType":5126,
			"count":24,
			"max":[
				-22.774192810058594,
				3.225806474685669,
				3.225806474685669
			],
			"min":[
				-29.225807189941406,
				0,
				-3.225806474685669
			],
			"type":"VEC3"
		},
		{
			"bufferView":65,
			"componentType":5126,
			"count":24,
			"type":"VEC3"
		},
		{
			"bufferView":66,
			"componentType":5126,
			"count":24,
			"type":"VEC2"
		},
		{
			"bufferView":67,
			"componentType":5126,
			"count":24,
			"max":[
				22.612903594970703,
				1.6129032373428345,
				3.225806474685669
			],
			"min":[
				19.387096405029297,
				0,
				-3.225806474685669
			],
			"type":"VEC3"
		},
		{
			"bufferView":68,
			"componentType":5126,
			"count":24,
			"type":"VEC3"
		},
		{
			"bufferView":69,
			"componentType":5126,
			"count":24,
			"type":"VEC2"
		},
		{
			"bufferView":70,
			"componentType":5126,
			"count":24,
			"max":[
				29.225807189941406,
				3.225806474685669,
				3.225806474685669
			],
			"min":[
				22.774192810058594,
				0,
				-3.225806474685669
			],
			"type":"VEC3"
		},
		{
			"bufferView":71,
			"componentType":5126,
			"count":24,
			"type":"VEC3"
		},
		{
			"bufferView":72,
			"componentType":5126,
			"count":24,
			"type":"VEC2"
		},
		{
			"bufferView":73,
			"componentType":5126,
			"count":24,
			"max":[
				50,
				12.903225898742676,
				48.3870964050293
			],
			"min":[
				46.774192810058594,
				0,
				-48.3870964050293
			],
			"type":"VEC3"
		},
		{
			"bufferView":74,
			"componentType":5126,
			"count":24,
			"type":"VEC3"
		},
		{
			"bufferView":75,
			"componentType":5126,
			"count":24,
			"type":"VEC2"
		},
		{
			"bufferView":76,
			"componentType":5126,
			"count":24,
			"max":[
				48.3870964050293,
				12.903225898742676,
				50
			],
			"min":[
				-48.3870964050293,
				0,
				46.774192810058594
			],
			"type":"VEC3"
		},
		{
			"bufferView":77,
			"componentType":5126,
			"count":24,
			"type":"VEC3"
		},
		{
			"bufferView":78,
			"componentType":5126,
			"count":24,
			"type":"VEC2"
		},
		{
			"bufferView":79,
			"componentType":5126,
			"count":24,
			"max":[
				48.3870964050293,
				12.903225898742676,
				-46.774192810058594
			],
			"min":[
				-48.3870964050293,
				0,
				-50
			],
			"type":"VEC3"
		},
		{
			"bufferView":80,
			"componentType":5126,
			"count":24,
			"type":"VEC3"
		},
		{
			"bufferView":81,
			"componentType":5126,
			"count":24,
			"type":"VEC2"
		},
		{
			"bufferView":82,
			"componentType":5126,
			"count":24,
			"max":[
				-46.774192810058594,
				12.903225898742676,
				48.3870964050293
			],
			"min":[
				-50,
				0,
				-48.3870964050293
			],
			"type":"VEC3"
		},
		{
			"bufferView":83,
			"componentType":5126,
			"count":24,
			"type":"VEC3"
		},
		{
			"bufferView":84,
			"componentType":5126,
			"count":24,
			"type":"VEC2"
		}
	],
	"bufferViews":[
		{
			"buffer":0,
			"byteLength":288,
			"byteOffset":0,
			"target":34962
		},
		{
			"buffer":0,
			"byteLength":288,
			"byteOffset":288,
			"target":34962
		},
		{
			"buffer":0,
			"byteLength":192,
			"byteOffset":576,
			"target":34962
		},
		{
			"buffer":0,
			"byteLength":72,
			"byteOffset":768,
			"target":34963
		},
		{
			"buffer":0,
			"byteLength":288,
			"byteOffset":840,
			"target":34962
		},
		{
			"buffer":0,
			"byteLength":288,
			"byteOffset":1128,
			"target":34962
		},
		{
			"buffer":0,
			"byteLength":192,
			"byteOffset":1416,
			"target":34962
		},
		{
			"buffer":0,
			"byteLength":288,
			"byteOffset":1608,
			"target":34962
		},
		{
			"buffer":0,
			"byteLength":288,
			"byteOffset":1896,
			"target":34962
		},
		{
			"buffer":0,
			"byteLength":192,
			"byteOffset":2184,
			"target":34962
		},
		{
			"buffer":0,
			"byteLength":288,
			"byteOffset":2376,
			"target":34962
		},
		{
			"buffer":0,
			"byteLength":288,
			"byteOffset":2664,
			"target":34962
		},
		{
			"buffer":0,
			"byteLength":192,
			"byteOffset":2952,
			"target":34962
		},
		{
			"buffer":0,
			"byteLength":288,
			"byteOffset":3144,
			"target":34962
		},
		{
			"buffer":0,
			"byteLength":288,
			"byteOffset":3432,
			"target":34962
		},
		{
			"buffer":0,
			"byteLength":192,
			"byteOffset":3720,
			"target":34962
		},
		{
			"buffer":0,
			"byteLength":288,
			"byteOffset":3912,
			"target":34962
		},
		{
			"buffer":0,
			"byteLength":288,
			"byteOffset":4200,
			"target":34962
		},
		{
			"buffer":0,
			"byteLength":192,
			"byteOffset":4488,
			"target":34962
		},
		{
			"buffer":0,
			"byteLength":288,
			"byteOffset":4680,
			"target":34962
		},
		{
			"buffer":0,
			"byteLength":288,
			"byteOffset":4968,
			"target":34962
		},
		{
			"buffer":0,
			"byteLength":192,
			"byteOffset":5256,
			"target":34962
		},
		{
			"buffer":0,
			"byteLength":288,
			"byteOffset":5448,
			"target":34962
		},
		{
			"buffer":0,
			"byteLength":288,
			"byteOffset":5736,
			"target":34962
		},
		{
			"buffer":0,
			"byteLength":192,
			"byteOffset":6024,
			"target":34962
		},
		{
			"buffer":0,
			"byteLength":288,
			"byteOffset":6216,
			"target":34962
		},
		{
			"buffer":0,
			"byteLength":288,
			"byteOffset":6504,
			"target":34962
		},
		{
			"buffer":0,
			"byteLength":192,
			"byteOffset":6792,
			"target":34962
		},
		{
			"buffer":0,
			"byteLength":288,
			"byteOffset":6984,
			"target":34962
		},
		{
			"buffer":0,
			"byteLength":288,
			"byteOffset":7272,
			"target":34962
		},
		{
			"buffer":0,
			"byteLength":192,
			"byteOffset":7560,
			"target":34962
		},
		{
			"buffer":0,
			"byteLength":288,
			"byteOffset":7752,
			"target":34962
		},
		{
			"buffer":0,
			"byteLength":288,
			"byteOffset":8040,
			"target":34962
		},
		{
			"buffer":0,
			"byteLength":192,
			"byteOffset":8328,
			"target":34962
		},
		{
			"buffer":0,
			"byteLength":288,
			"byteOffset":8520,
			"target":34962
		},
		{
			"buffer":0,
			"byteLength":288,
			"byteOffset":8808,
			"target":34962
		},
		{
			"buffer":0,
			"byteLength":192,
			"byteOffset":9096,
			"target":34962
		},
		{
			"buffer":0,
			"byteLength":288,
			"byteOffset":9288,
			"target":34962
		},
		{
			"buffer":0,
			"byteLength":288,
			"byteOffset":9576,
			"target":34962
		},
		{
			"buffer":0,
			"byteLength":192,
			"byteOffset":9864,
			"target":34962
		},
		{
			"buffer":0,
			"byteLength":288,
			"byteOffset":10056,
			"target":34962
		},
		{
			"buffer":0,
			"byteLength":288,
			"byteOffset":10344,
			"target":34962
		},
		{
			"buffer":0,
			"byteLength":192,
			"byteOffset":10632,
			"target":34962
		},
		{
			"buffer":0,
			"byteLength":288,
			"byteOffset":10824,
			"target":34962
		},
		{
			"buffer":0,
			"byteLength":288,
			"byteOffset":11112,
			"target":34962
		},
		{
			"buffer":0,
			"byteLength":192,
			"byteOffset":11400,
			"target":34962
		},
		{
			"buffer":0,
			"byteLength":288,
			"byteOffset":11592,
			"target":34962
		},
		{
			"buffer":0,
			"byteLength":288,
			"byteOffset":11880,
			"target":34962
		},
		{
			"buffer":0,
			"byteLength":192,
			"byteOffset":12168,
			"target":34962
		},
		{
			"buffer":0,
			"byteLength":288,
			"byteOffset":12360,
			"target":34962
		},
		{
			"buffer":0,
			"byteLength":288,
			"byteOffset":12648,
			"target":34962
		},
		{
			"buffer":0,
			"byteLength":192,
			"byteOffset":12936,
			"target":34962
		},
		{
			"buffer":0,
			"byteLength":288,
			"byteOffset":13128,
			"target":34962
		},
		{
			"buffer":0,
			"byteLength":288,
			"byteOffset":13416,
			"target":34962
		},
		{
			"buffer":0,
			"byteLength":192,
			"byteOffset":13704,
			"target":34962
		},
		{
			"buffer":0,
			"byteLength":288,
			"byteOffset":13896,
			"target":34962
		},
		{
			"buffer":0,
			"byteLength":288,
			"byteOffset":14184,
			"target":34962
		},
		{
			"buffer":0,
			"byteLength":192,
			"byteOffset":14472,
			"target":34962
		},
		{
			"buffer":0,
			"byteLength":288,
			"byteOffset":14664,
			"target":34962
		},
		{
			"buffer":0,
			"byteLength":288,
			"byteOffset":14952,
			"target":34962
		},
		{
			"buffer":0,
			"byteLength":192,
			"byteOffset":15240,
			"target":34962
		},
		{
			"buffer":0,
			"byteLength":288,
			"byteOffset":15432,
			"target":34962
		},
		{
			"buffer":0,
			"byteLength":288,
			"byteOffset":15720,
			"target":34962
		},
		{
			"buffer":0,
			"byteLength":192,
			"byteOffset":16008,
			"target":34962
		},
		{
			"buffer":0,
			"byteLength":288,
			"byteOffset":16200,
			"target":34962
		},
		{
			"buffer":0,
			"byteLength":288,
			"byteOffset":16488,
			"target":34962
		},
		{
			"buffer":0,
			"byteLength":192,
			"byteOffset":16776,
			"target":34962
		},
		{
			"buffer":0,
			"byteLength":288,
			"byteOffset":16968,
			"target":34962
		},
		{
			"buffer":0,
			"byteLength":288,
			"byteOffset":17256,
			"target":34962
		},
		{
			"buffer":0,
			"byteLength":192,
			"byteOffset":17544,
			"target":34962
		},
		{
			"buffer":0,
			"byteLength":288,
			"byteOffset":17736,
			"target":34962
		},
		{
			"buffer":0,
			"byteLength":288,
			"byteOffset":18024,
			"target":34962
		},
		{
			"buffer":0,
			"byteLength":192,
			"byteOffset":18312,
			"target":34962
		},
		{
			"buffer":0,
			"byteLength":288,
			"byteOffset":18504,
			"target":34962
		},
		{
			"buffer":0,
			"byteLength":288,
			"byteOffset":18792,
			"target":34962
		},
		{
			"buffer":0,
			"byteLength":192,
			"byteOffset":19080,
			"target":34962
		},
		{
			"buffer":0,
			"byteLength":288,
			"byteOffset":19272,
			"target":34962
		},
		{
			"buffer":0,
			"byteLength":288,
			"byteOffset":19560,
			"target":34962
		},
		{
			"buffer":0,
			"byteLength":192,
			"byteOffset":19848,
			"target":34962
		},
		{
			"buffer":0,
			"byteLength":288,
			"byteOffset":20040,
			"target":34962
		},
		{
			"buffer":0,
			"byteLength":288,
			"byteOffset":20328,
			"target":34962
		},
		{
			"buffer":0,
			"byteLength":192,
			"byteOffset":20616,
			"target":34962
		},
		{
			"buffer":0,
			"byteLength":288,
			"byteOffset":20808,
			"target":34962
		},
		{
			"buffer":0,
			"byteLength":288,
			"byteOffset":21096,
			"target":34962
		},
		{
			"buffer":0,
			"byteLength":192,
			"byteOffset":21384,
			"target":34962
		}
	],
	"samplers":[
		{
			"magFilter":9729,
			"minFilter":9987
		}
	],
	"buffers":[
		{
			"byteLength":21576,
			"uri":"fps_stage00.bin"
		}
	]
}
