{
	"asset":{
		"generator":"Khronos glTF Blender I/O v4.1.62",
		"version":"2.0"
	},
	"scene":0,
	"scenes":[
		{
			"name":"Scene",
			"nodes":[
				0
			]
		}
	],
	"nodes":[
		{
			"mesh":0,
			"name":"\u30c8\u30fc\u30e9\u30b9"
		}
	],
	"materials":[
		{
			"doubleSided":true,
			"name":"\u30de\u30c6\u30ea\u30a2\u30eb.002",
			"pbrMetallicRoughness":{
				"baseColorTexture":{
					"index":0
				},
				"metallicFactor":0,
				"roughnessFactor":0.5
			}
		}
	],
	"meshes":[
		{
			"name":"\u30c8\u30fc\u30e9\u30b9",
			"primitives":[
				{
					"attributes":{
						"POSITION":0,
						"NORMAL":1,
						"TEXCOORD_0":2,
						"TEXCOORD_1":3
					},
					"indices":4,
					"material":0
				}
			]
		}
	],
	"textures":[
		{
			"sampler":0,
			"source":0
		}
	],
	"images":[
		{
			"mimeType":"image/png",
			"name":"weapon",
			"uri":"weapon.png"
		}
	],
	"accessors":[
		{
			"bufferView":0,
			"componentType":5126,
			"count":2555,
			"max":[
				0.5000002384185791,
				1.3291149139404297,
				6.059226036071777
			],
			"min":[
				-0.5000000596046448,
				-4,
				-2
			],
			"type":"VEC3"
		},
		{
			"bufferView":1,
			"componentType":5126,
			"count":2555,
			"type":"VEC3"
		},
		{
			"bufferView":2,
			"componentType":5126,
			"count":2555,
			"type":"VEC2"
		},
		{
			"bufferView":3,
			"componentType":5126,
			"count":2555,
			"type":"VEC2"
		},
		{
			"bufferView":4,
			"componentType":5123,
			"count":4014,
			"type":"SCALAR"
		}
	],
	"bufferViews":[
		{
			"buffer":0,
			"byteLength":30660,
			"byteOffset":0,
			"target":34962
		},
		{
			"buffer":0,
			"byteLength":30660,
			"byteOffset":30660,
			"target":34962
		},
		{
			"buffer":0,
			"byteLength":20440,
			"byteOffset":61320,
			"target":34962
		},
		{
			"buffer":0,
			"byteLength":20440,
			"byteOffset":81760,
			"target":34962
		},
		{
			"buffer":0,
			"byteLength":8028,
			"byteOffset":102200,
			"target":34963
		}
	],
	"samplers":[
		{
			"magFilter":9729,
			"minFilter":9987
		}
	],
	"buffers":[
		{
			"byteLength":110228,
			"uri":"weapon.bin"
		}
	]
}
